<svg id="icons" enable-background="new 0 0 64 64" height="512" viewBox="0 0 64 64" width="512" xmlns="http://www.w3.org/2000/svg"><path d="m45.995 9v2l-10 5v-7c0-1.65 1.34-3 3-3h4c1.66 0 3 1.35 3 3z" fill="#965353"/><path d="m35.995 16-3 1.5-.01-.02c.01-.16.01-.32.01-.49 0-3.86-3.13-6.99-6.99-6.99-1.76 0-3.36.64-4.59 1.7-.23.21-.46.43-.67.67l-2.74-1.37c0-5.53 4.47-10 9.99-10 0 2.76 2.24 5 5 5 1.66 0 3 1.35 3 3z" fill="#a0d468"/><path d="m26.005 10c3.86 0 6.99 3.13 6.99 6.99 0 .17 0 .33-.01.49l.01.02-1 .5-11.25-5.63c.21-.24.439-.46.67-.67 1.23-1.06 2.83-1.7 4.59-1.7z" fill="#ed5565"/><path d="m31.995 18-13.99 7v-14l2.74 1.37z" fill="#f7c292"/><path d="m45.995 11v46c0 3.31-1.681 6-5 6h-16.99c-3.32 0-6-2.69-6-6v-32l13.99-7 1-.5 3-1.5z" fill="#ffd2a6"/><path d="m42.992 12.501v44.499c0 3.31-1.681 6-5 6h3.003c3.319 0 5-2.69 5-6v-46z" fill="#f7c292"/><path d="m18.003 57.998c-.553 0-1-.447-1-1v-46.001c0-.553.447-1 1-1s1 .447 1 1v46.001c0 .553-.447 1-1 1z"/><path d="m24.003 63.998c-3.859 0-7-3.141-7-7 0-.553.447-1 1-1s1 .447 1 1c0 2.757 2.243 5 5 5 .553 0 1 .447 1 1s-.447 1-1 1z"/><path d="m45.995 57.998c-.553 0-1-.447-1-1v-46.001c0-.553.447-1 1-1s1 .447 1 1v46.001c0 .553-.447 1-1 1z"/><path d="m40.996 63.998c-.553 0-1-.447-1-1s.447-1 1-1c2.948 0 3.999-2.583 3.999-5 0-.553.447-1 1-1s1 .447 1 1c0 4.187-2.411 7-5.999 7z"/><path d="m40.996 63.999h-16.993c-.553 0-1-.447-1-1s.447-1 1-1h16.993c.553 0 1 .447 1 1s-.447 1-1 1z"/><path d="m18.004 25.997c-.367 0-.72-.202-.896-.553-.247-.494-.047-1.095.447-1.342l27.992-14c.494-.246 1.094-.047 1.342.447.247.494.047 1.095-.447 1.342l-27.992 14c-.143.072-.296.106-.446.106z"/><path d="m31.998 18.997c-.15 0-.303-.034-.446-.105l-13.996-7c-.494-.247-.694-.848-.447-1.342s.848-.693 1.342-.447l13.996 7c.494.247.694.848.447 1.342-.176.35-.529.552-.896.552z"/><path d="m45.995 11.997c-.554-.001-1.001-.448-1-1.001l.002-1.991c.001-.552.448-.999 1-.999h.001c.553.001 1 .448.999 1.001l-.002 1.991c-.001.552-.448.999-1 .999z"/><path d="m45.997 10.006c-.553 0-1-.447-1-1 0-1.103-.897-2-2-2-.553 0-1-.447-1-1s.447-1 1-1c2.206 0 4 1.794 4 4 0 .553-.447 1-1 1z"/><path d="m35.999 16.996c-.553 0-1-.447-1-1v-6.99c0-.553.447-1 1-1s1 .447 1 1v6.99c0 .553-.447 1-1 1z"/><path d="m35.999 10.006c-.553 0-1-.447-1-1 0-2.206 1.794-4 4-4 .553 0 1 .447 1 1s-.447 1-1 1c-1.103 0-2 .897-2 2 0 .553-.447 1-1 1z"/><path d="m42.997 7.006h-3.998c-.553 0-1-.447-1-1s.447-1 1-1h3.998c.553 0 1 .447 1 1s-.447 1-1 1z"/><path d="m32.984 18.485c-.024 0-.049-.001-.073-.003-.551-.039-.965-.519-.925-1.069.01-.138.014-.278.014-.419 0-3.308-2.69-5.998-5.998-5.998-1.443 0-2.838.521-3.927 1.465-.205.177-.396.366-.573.568-.363.416-.997.455-1.411.093-.415-.364-.457-.996-.093-1.411.236-.27.494-.526.768-.763 1.452-1.259 3.312-1.952 5.236-1.952 4.41 0 7.998 3.588 7.998 7.998 0 .189-.006.377-.02.563-.038.527-.476.928-.996.928z"/><path d="m18.003 11.997c-.553 0-1-.447-1-1 0-6.063 4.933-10.996 10.996-10.996.553 0 1 .447 1 1s-.447 1-1 1c-4.961 0-8.996 4.035-8.996 8.996 0 .553-.447 1-1 1z"/><path d="m32.999 7.001c-3.309 0-6-2.691-6-6 0-.553.447-1 1-1s1 .447 1 1c0 2.206 1.794 4 4 4 .553 0 1 .447 1 1s-.447 1-1 1z"/><path d="m35.999 10.006c-.553 0-1-.447-1-1 0-1.104-.898-2.002-2.002-2.002-.553 0-1-.447-1-1s.447-1 1-1c2.207 0 4.002 1.795 4.002 4.002 0 .553-.447 1-1 1z"/><path d="m25.996 56.002c-.553 0-1-.447-1-1v-27.003c0-.553.447-1 1-1s1 .447 1 1v27.003c0 .553-.447 1-1 1z"/><path d="m31.994 56.002c-.553 0-1-.447-1-1v-27.003c0-.553.447-1 1-1s1 .447 1 1v27.003c0 .553-.447 1-1 1z"/><path d="m37.992 56.002c-.553 0-1-.447-1-1v-27.003c0-.553.447-1 1-1s1 .447 1 1v27.003c0 .553-.447 1-1 1z"/></svg>